<svg width="845" height="848" viewBox="0 0 845 848" fill="none" xmlns="http://www.w3.org/2000/svg">
<path d="M511.993 112.358C528.107 113.374 543.243 120.443 554.365 132.148L695.882 281.093C708.209 294.067 698.595 315.46 680.709 314.857L470.433 307.773C452.857 307.181 436.3 299.383 424.649 286.21L288.717 132.523C276.901 119.164 287.156 98.1902 304.955 99.3118L511.993 112.358Z" fill="#000B58"/>
<path d="M334.705 211.686C336.263 208.494 340.56 207.899 342.927 210.548L422.34 299.434C433.682 312.129 449.615 319.782 466.614 320.7L580.956 326.876C584.53 327.069 586.749 330.845 585.179 334.062L546.763 412.763C545.841 414.653 544.128 416.037 542.087 416.543V416.543C443.265 441.011 340.937 392.164 297.818 299.941L296.256 296.601C295.328 294.615 295.347 292.317 296.309 290.347L334.705 211.686Z" fill="#000B58"/>
<rect x="671.68" y="290.884" width="14.0626" height="143.108" transform="rotate(2.61233 671.68 290.884)" fill="#000B58"/>
<ellipse cx="671.391" cy="442.409" rx="23.9892" ry="26.4708" transform="rotate(2.61233 671.391 442.409)" fill="#000B58"/>
<path d="M653.586 451.533L686.641 453.041L706.796 514.553C709.022 521.348 701.939 527.453 695.547 524.248V524.248C680.525 516.716 662.995 515.982 647.395 522.232L646.353 522.649C639.829 525.263 633.177 519.172 635.208 512.443L653.586 451.533Z" fill="#000B58"/>
<path d="M563.972 430.985C582.258 479.131 585.444 531.706 573.108 581.708C560.772 631.711 533.498 676.77 494.917 710.887C456.336 745.004 408.279 766.561 357.143 772.687C306.007 778.814 254.217 769.219 208.669 745.181C163.121 721.143 125.975 683.802 102.176 638.129C78.3774 592.455 69.0547 540.616 75.4491 489.513C81.8436 438.409 103.652 390.466 137.971 352.064C172.29 313.663 217.491 286.626 267.558 274.552" stroke="#000B58" stroke-width="20" stroke-linecap="round"/>
<path d="M97.8358 419.488L116.185 472.248C116.948 474.441 118.45 476.3 120.434 477.506L153.626 497.695C159.566 501.309 167.29 497.906 168.634 491.084L171.05 478.818C171.844 474.788 170.093 470.683 166.635 468.466L157.469 462.591C154.6 460.752 152.865 457.579 152.865 454.172L152.865 439.025C152.865 434.175 156.346 430.023 161.122 429.178L215.865 419.488L259.865 394.14L281.836 338.488" stroke="#000B58" stroke-width="20" stroke-linecap="round"/>
<path d="M233.724 718.992L227.21 715.464C225.436 714.503 223.994 713.028 223.074 711.232L205.087 676.136C204.364 674.725 203.987 673.161 203.987 671.575L203.987 596.343C203.987 591.507 200.525 587.363 195.765 586.503L166.95 581.295C164.114 580.783 161.636 579.071 160.153 576.599L141.672 545.796C140.577 543.972 140.093 541.847 140.289 539.729L142.109 520.066C142.351 517.453 143.611 515.039 145.617 513.346L170.603 492.257C171.182 491.768 171.915 491.5 172.673 491.5C173.215 491.5 173.749 491.638 174.224 491.9L204.529 508.631C206.136 509.518 207.958 509.946 209.792 509.867L257.957 507.791C261.665 507.631 265.157 509.538 267.027 512.745L287.593 548.025C289.385 551.098 292.675 552.989 296.232 552.989L311.92 552.989C318.018 552.989 322.696 558.4 321.815 564.434L317.509 593.912C317.172 596.223 316.035 598.343 314.298 599.905L285.803 625.509C283.692 627.405 282.487 630.109 282.487 632.947L282.487 650.929C282.487 654.11 280.973 657.101 278.411 658.986L252.563 677.992C250 679.876 248.487 682.867 248.487 686.048L248.487 710.199C248.487 717.777 240.387 722.601 233.724 718.992Z" stroke="#000B58" stroke-width="20"/>
<path d="M339.488 395.987L348.794 462.25C349.293 465.799 351.651 468.809 354.977 470.142L408.75 491.69C410.847 492.53 413.166 492.636 415.33 491.99L440.754 484.4C443.738 483.51 446.966 484.06 449.487 485.888L466.86 498.493C469.453 500.374 470.987 503.383 470.987 506.587L470.988 534.53C470.988 536.145 471.379 537.735 472.127 539.165L503.742 599.605C504.558 601.166 504.948 602.915 504.871 604.675L503.659 632.553C503.549 635.081 504.402 637.557 506.046 639.482L523.989 660.487" stroke="#000B58" stroke-width="20" stroke-linecap="round"/>
</svg>
